<svg xmlns="http://www.w3.org/2000/svg" viewBox="0 0 256 256">
  <defs>
    <linearGradient id="shell" x1="36" y1="24" x2="218" y2="232" gradientUnits="userSpaceOnUse">
      <stop stop-color="#31383d"/>
      <stop offset=".46" stop-color="#0c1013"/>
      <stop offset="1" stop-color="#020304"/>
    </linearGradient>
    <linearGradient id="note" x1="78" y1="61" x2="184" y2="190" gradientUnits="userSpaceOnUse">
      <stop stop-color="#f2d79a"/>
      <stop offset=".42" stop-color="#9ad4ca"/>
      <stop offset=".78" stop-color="#7fa9cb"/>
      <stop offset="1" stop-color="#c48ea1"/>
    </linearGradient>
    <radialGradient id="glow" cx="0" cy="0" r="1" gradientTransform="translate(111 80) rotate(48) scale(137)">
      <stop stop-color="#bce7dc" stop-opacity=".24"/>
      <stop offset="1" stop-color="#bce7dc" stop-opacity="0"/>
    </radialGradient>
    <filter id="shadow" x="-30%" y="-30%" width="160%" height="180%">
      <feDropShadow dx="0" dy="13" stdDeviation="12" flood-color="#000" flood-opacity=".52"/>
    </filter>
  </defs>
  <rect x="18" y="18" width="220" height="220" rx="55" fill="url(#shell)" filter="url(#shadow)"/>
  <rect x="19" y="19" width="218" height="218" rx="54" fill="url(#glow)" stroke="#fff" stroke-opacity=".17" stroke-width="2"/>
  <path d="M83 166.5c0-15.7 13.8-28.5 30.8-28.5 5.5 0 10.6 1.3 15 3.5V81.3c0-6.6 4.4-12.3 10.7-14l46.8-10.2c6.7-1.5 13 3.6 13 10.4v76.8c0 15.7-13.8 28.5-30.8 28.5s-30.8-12.8-30.8-28.5c0-15.8 13.8-28.5 30.8-28.5 4.7 0 9.2 1 13.1 2.7V88.2l-35 7.6v70.7c0 15.7-13.8 28.5-30.8 28.5S83 182.2 83 166.5Z" fill="url(#note)"/>
  <path d="M146.6 78.7 181.6 71v17.2l-35 7.6V78.7Z" fill="#fff" fill-opacity=".35"/>
  <path d="M49 110c20-27 42-40 67-42M44 134c18-18 36-28 54-31" fill="none" stroke="#fff" stroke-opacity=".12" stroke-linecap="round" stroke-width="4"/>
</svg>
